<svg xmlns="http://www.w3.org/2000/svg" width="53" height="47"><path fill-rule="evenodd" fill="#FFF" d="M48.656 5.075C46.097 2.185 42.548.592 38.661.592c-5.466 0-8.926 3.251-10.866 5.979a19.686 19.686 0 0 0-1.292 2.085 19.67 19.67 0 0 0-1.291-2.085C23.271 3.843 19.811.592 14.345.592c-3.886 0-7.436 1.593-9.994 4.483C1.91 7.834.566 11.527.566 15.476c0 4.299 1.685 8.297 5.303 12.582 3.234 3.83 7.886 7.778 13.274 12.349 2.007 1.704 4.083 3.465 6.293 5.391l.066.058a1.52 1.52 0 0 0 2.002 0l.067-.058c2.21-1.926 4.286-3.687 6.293-5.391 5.387-4.571 10.039-8.519 13.273-12.349 3.618-4.285 5.303-8.283 5.303-12.582 0-3.949-1.344-7.642-3.784-10.401zM31.893 38.103c-1.731 1.469-3.512 2.98-5.39 4.606-1.878-1.626-3.659-3.137-5.39-4.606C10.571 29.156 3.605 23.246 3.605 15.476c0-3.212 1.075-6.195 3.026-8.399 1.973-2.23 4.713-3.458 7.714-3.458 4.167 0 6.861 2.557 8.387 4.701a17.924 17.924 0 0 1 2.326 4.607 1.518 1.518 0 0 0 1.445 1.045c.658 0 1.241-.421 1.445-1.045.244-.744.958-2.683 2.327-4.607 1.526-2.144 4.219-4.701 8.386-4.701 3.001 0 5.741 1.228 7.714 3.458 1.951 2.204 3.026 5.187 3.026 8.399 0 7.77-6.965 13.68-17.508 22.627z"/></svg>